<?xml version="1.0" standalone="no"?>
<!DOCTYPE svg PUBLIC "-//W3C//DTD SVG 20010904//EN"
 "http://www.w3.org/TR/2001/REC-SVG-20010904/DTD/svg10.dtd">
<svg version="1.0" xmlns="http://www.w3.org/2000/svg"
 width="844.000000pt" height="426.000000pt" viewBox="0 0 844.000000 426.000000"
 preserveAspectRatio="xMidYMid meet">

<g transform="translate(0.000000,426.000000) scale(0.100000,-0.100000)"
fill="#000000" stroke="none">
<path d="M1870 3623 c-8 -3 -78 -34 -155 -68 -77 -34 -205 -86 -285 -115 -197
-70 -339 -140 -378 -185 -18 -20 -32 -41 -32 -48 0 -7 -19 -22 -43 -34 -64
-31 -102 -67 -127 -120 -21 -44 -22 -58 -17 -163 15 -319 40 -453 112 -610 40
-87 44 -104 49 -195 11 -214 123 -531 295 -829 92 -159 123 -201 152 -201 18
0 25 6 27 25 2 26 -11 55 -135 290 -149 282 -234 540 -236 720 -2 104 -3 106
-49 200 -26 52 -57 131 -67 175 -23 93 -51 356 -51 476 l0 82 44 42 c35 34 58
46 122 63 140 37 382 74 427 65 34 -7 56 -49 101 -191 46 -147 37 -175 -91
-287 -95 -81 -122 -91 -149 -50 -25 39 -11 71 49 109 87 56 87 55 39 149 -23
45 -42 87 -42 93 0 6 -7 17 -15 24 -14 11 -23 7 -60 -30 l-43 -42 -101 7 -101
7 0 -31 c0 -50 42 -66 168 -65 77 0 102 -3 102 -12 0 -7 -10 -19 -22 -25 -29
-16 -179 -6 -241 16 -56 20 -80 9 -75 -34 2 -21 14 -30 63 -50 37 -15 82 -25
117 -25 l58 -1 0 -43 c0 -52 19 -91 60 -126 40 -33 118 -36 167 -7 l31 20 7
-84 c13 -157 -17 -250 -106 -325 -47 -40 -53 -42 -64 -26 -8 10 -37 21 -76 27
-35 6 -83 19 -106 29 -37 16 -44 16 -62 3 -30 -20 -26 -37 16 -72 63 -52 178
-63 307 -30 54 14 139 101 162 165 l17 49 58 -57 c63 -64 90 -71 115 -33 17
25 16 26 -45 90 -70 73 -108 145 -123 239 -9 54 -14 65 -32 68 -19 3 -18 5 11
26 30 22 34 22 62 7 38 -19 104 -19 141 0 32 17 48 42 81 130 17 45 24 55 37
50 10 -4 36 -14 58 -22 35 -12 44 -21 59 -58 24 -65 62 -100 114 -109 24 -4
46 -5 48 -2 9 9 -37 83 -76 121 -23 21 -41 42 -41 46 0 4 24 15 53 25 44 14
71 36 180 146 145 145 188 178 284 215 61 24 81 27 200 28 118 0 134 -2 159
-21 53 -39 53 -38 -131 -117 -135 -57 -208 -110 -355 -257 -174 -174 -239
-258 -281 -365 -67 -172 -147 -254 -287 -296 -49 -14 -68 -52 -38 -74 12 -9
16 -29 16 -81 0 -136 29 -252 100 -399 60 -125 155 -262 248 -357 90 -92 121
-107 142 -67 13 23 15 20 -71 119 -123 142 -254 373 -288 507 -14 54 -21 113
-21 175 l0 93 68 51 c89 66 147 141 217 277 77 149 102 184 213 304 143 157
223 210 494 332 81 36 112 76 103 131 -9 52 -30 77 -85 105 -49 25 -60 38 -40
50 6 3 10 24 10 45 0 53 -37 82 -139 109 -44 12 -106 31 -138 42 -134 46 -264
44 -485 -6 -58 -14 -113 -25 -121 -25 -9 0 -25 16 -37 34 -31 50 -77 76 -136
75 -27 0 -56 -3 -64 -6z m113 -115 c36 -48 116 -194 133 -240 20 -57 2 -114
-43 -141 -55 -32 -67 -77 -21 -77 17 0 19 -4 14 -26 -4 -15 -10 -39 -13 -55
-6 -33 -24 -42 -59 -29 -20 8 -24 14 -18 28 14 31 16 99 5 169 -14 89 -107
278 -162 328 l-38 34 52 20 c80 31 121 28 150 -11z m687 -40 c36 -14 97 -33
135 -43 39 -10 74 -22 79 -26 6 -5 -8 -16 -30 -25 -33 -14 -58 -15 -169 -8
-181 11 -204 9 -346 -34 l-126 -39 -36 73 -36 72 147 27 c81 15 152 29 157 31
28 11 166 -6 225 -28z m-936 -48 c31 -12 58 -64 120 -235 44 -121 47 -134 37
-172 -6 -22 -23 -58 -37 -79 -14 -21 -32 -62 -40 -92 -22 -82 -30 -94 -67 -90
-35 3 -35 4 -13 63 11 30 13 63 9 130 -6 83 -10 97 -54 180 -27 50 -62 104
-79 120 -45 43 -132 46 -314 10 -76 -15 -140 -25 -142 -22 -14 13 483 197 533
197 12 0 33 -4 47 -10z m736 -176 c-30 -19 -114 -94 -187 -167 -73 -72 -135
-129 -137 -126 -4 4 71 237 80 247 5 7 259 81 279 81 12 1 0 -12 -35 -35z"/>
<path d="M4839 2886 c-127 -34 -198 -150 -187 -306 9 -123 76 -199 226 -259
178 -71 223 -112 230 -210 5 -66 -9 -120 -38 -146 -45 -40 -138 -38 -194 6
-32 25 -70 98 -87 163 l-12 47 -56 -3 -56 -3 -11 -165 c-7 -91 -9 -168 -5
-171 3 -4 34 -10 69 -14 l62 -7 0 51 0 52 32 -37 c18 -21 51 -45 73 -55 44
-21 139 -25 195 -9 123 34 200 213 156 364 -30 101 -112 173 -270 236 -97 38
-120 54 -147 97 -43 69 -20 197 42 228 42 22 101 19 140 -8 47 -32 75 -77 96
-157 l17 -70 58 0 57 0 5 43 c3 23 8 108 11 190 l5 147 -70 0 -70 0 0 -49 0
-48 -43 42 c-61 62 -130 78 -228 51z"/>
<path d="M3453 2882 l-183 -2 0 -65 0 -65 41 0 c34 0 39 -3 35 -17 -6 -20
-156 -754 -156 -764 0 -4 -20 -4 -45 -1 l-45 5 0 -77 0 -76 154 0 153 0 7 46
c12 91 11 94 -34 94 -46 0 -46 1 -27 115 l12 70 55 7 c30 3 73 6 96 7 l41 1
16 -93 c10 -51 17 -99 17 -105 0 -8 -17 -12 -46 -12 l-47 0 7 -37 c3 -21 6
-55 6 -75 l0 -38 155 0 155 0 0 48 c0 26 3 57 6 69 6 20 1 23 -43 29 l-50 6
-78 382 c-43 209 -80 391 -83 404 -4 19 0 22 31 22 l36 0 7 56 c3 30 3 59 -2
62 -5 4 -91 6 -191 4z m46 -392 c17 -102 31 -191 31 -197 0 -14 -140 -19 -140
-5 -1 30 66 400 71 394 3 -4 20 -90 38 -192z"/>
<path d="M3943 2840 c-34 -14 -65 -69 -58 -104 7 -38 23 -56 63 -73 74 -31
149 46 118 121 -14 33 -59 67 -88 65 -7 0 -23 -4 -35 -9z"/>
<path d="M5434 2840 c-31 -12 -64 -59 -64 -90 0 -33 33 -78 68 -91 32 -12 87
5 107 34 17 25 20 80 5 108 -11 20 -60 49 -82 48 -7 0 -23 -4 -34 -9z"/>
<path d="M6069 2636 c-35 -45 -48 -56 -64 -50 -11 3 -46 8 -78 11 -74 7 -134
-15 -180 -66 -47 -53 -62 -101 -61 -201 0 -71 5 -95 28 -145 15 -33 34 -67 42
-76 13 -15 13 -20 -5 -50 -25 -41 -26 -70 -4 -116 15 -33 15 -36 0 -45 -9 -5
-29 -30 -44 -55 -22 -38 -27 -59 -27 -112 0 -72 15 -110 61 -153 94 -90 270
-75 366 31 47 52 57 78 57 144 0 108 -78 174 -226 193 -52 6 -74 27 -74 69 0
19 37 41 81 49 59 10 117 60 147 124 24 51 27 68 26 157 -1 55 -7 112 -12 127
-10 25 -8 30 46 77 l57 50 -46 47 -46 46 -44 -56z m-119 -188 c83 -89 16 -309
-79 -259 -62 34 -83 209 -30 262 27 27 82 25 109 -3z m4 -619 c48 -13 86 -50
86 -83 0 -36 -45 -84 -86 -92 -46 -9 -101 3 -125 27 -38 38 -18 128 35 149 29
12 44 12 90 -1z"/>
<path d="M4278 2580 c-38 -3 -70 -9 -73 -12 -3 -3 -3 -35 1 -72 l7 -66 40 0
c36 0 39 -2 33 -22 -3 -13 -6 -119 -6 -235 l0 -213 -49 0 c-46 0 -49 -1 -55
-31 -3 -17 -6 -52 -6 -77 l0 -45 128 6 c70 4 151 7 180 7 l52 0 0 70 0 70 -51
0 -50 0 3 173 c3 161 4 174 26 204 13 18 45 43 72 55 l50 23 0 82 c0 100 -5
102 -101 44 l-64 -39 -3 44 c-4 50 3 48 -134 34z"/>
<path d="M6288 2583 l-98 -4 0 -63 c0 -70 6 -76 78 -76 l32 0 0 -240 0 -240
-35 0 -35 0 0 -70 0 -70 130 0 131 0 -3 63 -3 62 -34 3 -34 3 6 182 c4 100 12
200 18 221 30 107 146 132 168 36 4 -19 5 -127 2 -240 l-6 -205 -30 -5 c-30
-5 -30 -5 -26 -65 1 -33 4 -61 5 -61 0 -1 56 -4 123 -7 l122 -5 5 26 c3 15 7
43 8 62 3 34 2 35 -34 38 l-36 3 1 262 c2 292 -2 316 -59 367 -58 50 -149 39
-226 -29 -39 -34 -48 -29 -48 30 0 18 -5 28 -12 27 -7 -1 -57 -4 -110 -5z"/>
<path d="M3837 2574 c-4 -4 -7 -36 -7 -71 l0 -63 45 0 45 0 0 -244 0 -244 -30
-7 c-29 -6 -30 -8 -30 -69 l0 -63 61 -7 c34 -3 95 -6 135 -6 l73 0 6 44 c11
69 5 81 -38 84 l-38 3 7 297 c4 163 7 308 8 322 l1 25 -116 3 c-63 1 -118 -1
-122 -4z"/>
<path d="M5327 2573 c-4 -3 -7 -35 -7 -70 l0 -63 45 0 45 0 0 -244 0 -244 -35
-6 -35 -7 0 -59 c0 -32 5 -62 10 -65 6 -4 68 -9 139 -12 l128 -6 5 59 c3 32 4
62 1 67 -2 4 -20 7 -40 7 l-35 0 7 325 8 325 -115 0 c-63 0 -118 -3 -121 -7z"/>
<path d="M1579 2122 c-15 -9 -46 -30 -69 -47 -40 -28 -52 -30 -153 -35 -90 -4
-112 -8 -121 -22 -14 -23 2 -50 35 -59 44 -13 155 -9 207 6 92 28 181 113 156
152 -15 24 -26 25 -55 5z"/>
<path d="M1645 2000 c-14 -16 -17 -30 -12 -72 14 -136 55 -248 91 -248 7 0 21
6 31 14 18 13 17 18 -14 149 -24 99 -39 141 -55 156 -23 21 -23 21 -41 1z"/>
<path d="M1693 1529 c-30 -11 -30 -53 -1 -73 31 -22 45 -20 64 9 13 21 14 28
4 41 -21 24 -43 32 -67 23z"/>
<path d="M1969 1034 c-17 -21 0 -48 34 -52 21 -3 28 2 33 22 3 14 3 30 -1 35
-10 16 -51 13 -66 -5z"/>
<path d="M2092 1038 c-32 -32 8 -80 48 -58 25 14 26 46 1 60 -25 13 -34 13
-49 -2z"/>
</g>
</svg>
